<?xml version="1.0" encoding="UTF-8" standalone="no"?>
<svg
   version="1.1"
   id="svg2"
   xml:space="preserve"
   width="2049.9998"
   height="640"
   viewBox="0 0 2049.9997 639.99995"
   sodipodi:docname="viash_large.svg"
   inkscape:version="1.1.2 (0a00cf5339, 2022-02-04)"
   xmlns:inkscape="http://www.inkscape.org/namespaces/inkscape"
   xmlns:sodipodi="http://sodipodi.sourceforge.net/DTD/sodipodi-0.dtd"
   xmlns="http://www.w3.org/2000/svg"
   xmlns:svg="http://www.w3.org/2000/svg"
   xmlns:rdf="http://www.w3.org/1999/02/22-rdf-syntax-ns#"
   xmlns:cc="http://creativecommons.org/ns#"
   xmlns:dc="http://purl.org/dc/elements/1.1/"><metadata
     id="metadata8"><rdf:RDF><cc:Work
         rdf:about=""><dc:format>image/svg+xml</dc:format><dc:type
           rdf:resource="http://purl.org/dc/dcmitype/StillImage" /><dc:title /></cc:Work></rdf:RDF></metadata><defs
     id="defs6"><clipPath
       clipPathUnits="userSpaceOnUse"
       id="clipPath18"><path
         d="M 0,566.929 H 1133.858 V 0 H 0 Z"
         id="path16" /></clipPath></defs><sodipodi:namedview
     pagecolor="#ffffff"
     bordercolor="#666666"
     borderopacity="1"
     objecttolerance="10"
     gridtolerance="10"
     guidetolerance="10"
     inkscape:pageopacity="0"
     inkscape:pageshadow="2"
     inkscape:window-width="3840"
     inkscape:window-height="2091"
     id="namedview4"
     showgrid="true"
     fit-margin-top="0"
     fit-margin-left="0"
     fit-margin-right="0"
     fit-margin-bottom="0"
     inkscape:zoom="1"
     inkscape:cx="1253"
     inkscape:cy="337"
     inkscape:window-x="0"
     inkscape:window-y="32"
     inkscape:window-maximized="1"
     inkscape:current-layer="g1482"
     units="px"
     inkscape:snap-global="true"
     inkscape:document-rotation="0"
     inkscape:snap-text-baseline="true"
     inkscape:pagecheckerboard="0"><inkscape:grid
       type="xygrid"
       id="grid942"
       spacingx="9.9999994"
       spacingy="9.9999994"
       originx="1.826656e-08"
       originy="2.2114038e-09" /></sodipodi:namedview><g
     inkscape:groupmode="layer"
     id="layer2"
     inkscape:label="Background"
     style="display:inline" /><g
     id="g10"
     inkscape:groupmode="layer"
     inkscape:label="PDF"
     transform="matrix(1.3333333,0,0,-1.3333333,-193.72466,537.36291)"
     style="display:none;opacity:1"><g
       id="g922"
       transform="matrix(2.0002751,0,0,2.0002751,-145.33347,-403.13306)"
       style="opacity:1"><path
         d="m 145.2935,163.0561 c 0.002,0.616 0.006,1.232 0.006,1.848 0,78.753 0,157.507 0.003,236.261 0,2.062 -0.205,1.851 1.888,1.851 44.509,0.003 89.017,0.002 133.525,0.002 h 1.6 c -0.521,-1.494 -0.978,-2.837 -1.457,-4.171 -12.582,-35.04 -25.167,-70.078 -37.75,-105.118 -7.52,-20.939 -15.044,-41.877 -22.536,-62.826 -0.338,-0.946 -0.734,-1.311 -1.79,-1.297 -4.891,0.068 -9.784,0.05 -14.676,0.011 -0.796,-0.006 -1.121,0.272 -1.372,0.998 -6.996,20.288 -14.014,40.567 -21.027,60.849 -2.431,7.029 -4.859,14.06 -7.287,21.091 -0.129,0.375 -0.245,0.755 -0.366,1.133 0.068,0.07 0.135,0.14 0.203,0.21 3.979,-2.31 7.957,-4.62 12.038,-6.989 1.788,3.921 3.512,7.702 5.367,11.769 6.859,-20.592 13.632,-40.927 20.406,-61.263 0.109,-0.009 0.218,-0.018 0.328,-0.027 14.9,42.807 29.802,85.614 44.759,128.585 -0.536,0.036 -0.891,0.081 -1.246,0.081 -30.79,0.003 -61.579,0.003 -92.369,0.002 -1.258,0 -1.261,-0.005 -1.261,-1.446 -0.001,-36.263 -0.001,-72.527 -0.001,-108.791 v -94.115 c 0,-0.376 0.025,-0.754 -0.003,-1.128 -0.051,-0.684 0.188,-1.049 0.929,-0.966 0.236,0.027 0.479,0.003 0.718,0.003 67.156,0 134.311,0 201.467,0.002 1.849,10e-4 1.67,-0.19 1.67,1.628 0.003,27.643 0.002,55.286 0.002,82.928 0,1.525 -0.001,1.529 -1.499,1.529 -9.682,0.002 -19.363,0.002 -29.045,0 -1.553,0 -1.555,-0.004 -1.556,-1.614 0,-11.016 0,-22.031 -10e-4,-33.048 0,-1.462 -0.002,-1.465 -1.456,-1.465 -5.098,-0.001 -10.195,0.024 -15.292,-0.022 -0.992,-0.009 -1.26,0.28 -1.259,1.268 0.026,27.3 0.026,54.601 0.002,81.902 -10e-4,0.931 0.238,1.234 1.193,1.227 5.166,-0.041 10.332,-0.045 15.498,0.002 1.026,0.009 1.341,-0.272 1.337,-1.322 -0.037,-9.75 -0.023,-19.5 -0.022,-29.25 10e-4,-1.545 0.004,-1.546 1.569,-1.546 h 28.84 1.494 v 1.356 c 0,9.921 0.009,19.843 -0.017,29.764 -0.002,0.751 0.221,1.272 0.756,1.787 2.804,2.7 5.577,5.434 8.683,8.471 0.366,-0.529 0.637,-1.063 1.037,-1.471 2.229,-2.27 4.461,-4.539 6.757,-6.741 0.71,-0.682 0.94,-1.38 0.94,-2.335 -0.02,-43.653 -0.025,-87.306 -0.01,-130.96 0.002,-6.014 0.111,-12.028 0.175,-18.042 0.002,-0.202 0.049,-0.403 0.075,-0.605 z"
         style="fill:#faa9a9;fill-opacity:1;fill-rule:nonzero;stroke:none"
         id="path918" /><path
         d="m 254.4263,250.9643 c 1.965,-1.099 3.745,-2.183 5.603,-3.115 5.026,-2.521 10.375,-3.767 15.999,-3.699 2.64,0.032 5.229,0.456 7.657,1.592 6.173,2.889 7.043,10.734 1.63,14.879 -2.858,2.187 -6.151,3.531 -9.511,4.706 -5.047,1.765 -9.952,3.811 -14.287,7.018 -4.666,3.453 -8.048,7.827 -9.174,13.618 -1.959,10.066 2.384,19.418 11.289,24.641 4.221,2.475 8.789,3.866 13.647,4.315 6.871,0.635 13.655,0.211 20.203,-2.1 2.272,-0.801 4.41,-1.988 6.585,-3.049 0.221,-0.108 0.456,-0.626 0.379,-0.846 -1.671,-4.729 -3.385,-9.441 -5.096,-14.156 -0.031,-0.087 -0.128,-0.151 -0.277,-0.319 -0.977,0.494 -1.983,0.978 -2.965,1.504 -4.579,2.455 -9.488,3.61 -14.657,3.597 -2.674,-0.007 -5.311,-0.394 -7.691,-1.777 -4.656,-2.705 -5.145,-8.55 -0.945,-11.919 1.111,-0.892 2.334,-1.711 3.628,-2.292 3.142,-1.409 6.349,-2.677 9.543,-3.968 4.451,-1.799 8.759,-3.85 12.504,-6.921 5.503,-4.511 8.297,-10.299 8.529,-17.436 0.394,-12.098 -7.189,-20.798 -17.364,-24.392 -5.259,-1.858 -10.685,-2.442 -16.221,-2.299 -6.653,0.171 -13.089,1.376 -19.164,4.164 -1.482,0.68 -2.859,1.599 -4.247,2.466 -0.224,0.14 -0.426,0.641 -0.35,0.884 1.548,4.941 3.138,9.869 4.753,14.904"
         style="fill:#faa9a9;fill-opacity:1;fill-rule:nonzero;stroke:none"
         id="path920" /></g></g><g
     inkscape:groupmode="layer"
     id="g2016"
     inkscape:label="Compare"
     style="display:none"><g
       aria-label="VSH"
       id="g2014"
       style="font-style:normal;font-variant:normal;font-weight:bold;font-stretch:normal;font-size:320px;line-height:1.25;font-family:'Open Sans';-inkscape-font-specification:'Open Sans Bold';letter-spacing:-18px;word-spacing:0px;fill:#2926ff;fill-opacity:0.373806"
       transform="matrix(1.0034828,0,0,1.0034828,-2.2289609,-0.83857653)"><path
         d="m 428.71219,405.55786 q 0,31.03945 -22.41738,48.91065 -22.26062,17.8712 -62.0789,17.8712 -36.68299,0 -64.90068,-13.79531 v -45.1483 q 23.20121,10.34649 39.19123,14.57914 16.14679,4.23265 29.4718,4.23265 15.99003,0 24.45533,-6.11383 8.62207,-6.11383 8.62207,-18.18473 0,-6.74089 -3.76236,-11.91413 -3.76236,-5.33001 -11.13031,-10.18972 -7.21118,-4.85971 -29.62856,-15.51973 -21.0065,-9.87619 -31.50975,-18.96855 -10.50325,-9.09237 -16.77385,-21.16326 -6.27059,-12.0709 -6.27059,-28.21769 0,-30.41239 20.5362,-47.81329 20.69297,-17.40091 57.06243,-17.40091 17.8712,0 34.01798,4.23265 16.30355,4.23266 34.01799,11.91414 l -15.67649,37.78034 q -18.3415,-7.52472 -30.41239,-10.50325 -11.91414,-2.97853 -23.51474,-2.97853 -13.79531,0 -21.16326,6.42736 -7.36796,6.42736 -7.36796,16.77384 0,6.42737 2.97854,11.28708 2.97853,4.70294 9.40589,9.24913 6.58413,4.38941 30.88269,15.99002 32.13681,15.36296 44.05094,30.88269 11.91413,15.36296 11.91413,37.78034 z"
         style="font-style:normal;font-variant:normal;font-weight:bold;font-stretch:normal;font-size:320px;font-family:'Open Sans';-inkscape-font-specification:'Open Sans Bold';fill:#2926ff;fill-opacity:0.373806;stroke-width:1.0033"
         id="path2010" /><path
         id="path2012"
         style="font-style:normal;font-variant:normal;font-weight:bold;font-stretch:normal;font-size:320px;font-family:'Open Sans';-inkscape-font-specification:'Open Sans Bold';fill:#2926ff;fill-opacity:0.373806;stroke-width:1.00679"
         d="M 0,0 V 640 H 640 V 240.00586 L 615,215 l -25,25 -4e-5,89.99998 h -90 L 500,240.01172 H 450 V 470 h 50 l -4e-5,-100.00002 h 90 L 590,590 H 50 V 50 H 283.89258 L 175,385.14062 123.38867,226.29492 107.33789,257.79688 75.835938,241.74609 125.2793,393.91602 150,470 h 50 L 352.71289,0 Z"
         transform="matrix(0.99652929,0,0,0.99652929,2.2212248,0.83566607)"
         sodipodi:nodetypes="ccccccccccccccccccccccccccc" /></g></g><g
     inkscape:groupmode="layer"
     id="layer1"
     inkscape:label="Layer"
     style="display:inline"><g
       aria-label="VSH"
       id="text951"
       style="font-style:normal;font-variant:normal;font-weight:bold;font-stretch:normal;font-size:320px;line-height:1.25;font-family:'Open Sans';-inkscape-font-specification:'Open Sans Bold';letter-spacing:-18px;word-spacing:0px;fill:#ff0909;fill-opacity:0.262046"
       transform="matrix(1.0034828,0,0,1.0034828,-2.2289609,-0.83857653)"><path
         d="m 428.71219,405.55786 q 0,31.03945 -22.41738,48.91065 -22.26062,17.8712 -62.0789,17.8712 -36.68299,0 -64.90068,-13.79531 v -45.1483 q 23.20121,10.34649 39.19123,14.57914 16.14679,4.23265 29.4718,4.23265 15.99003,0 24.45533,-6.11383 8.62207,-6.11383 8.62207,-18.18473 0,-6.74089 -3.76236,-11.91413 -3.76236,-5.33001 -11.13031,-10.18972 -7.21118,-4.85971 -29.62856,-15.51973 -21.0065,-9.87619 -31.50975,-18.96855 -10.50325,-9.09237 -16.77385,-21.16326 -6.27059,-12.0709 -6.27059,-28.21769 0,-30.41239 20.5362,-47.81329 20.69297,-17.40091 57.06243,-17.40091 17.8712,0 34.01798,4.23265 16.30355,4.23266 34.01799,11.91414 l -15.67649,37.78034 q -18.3415,-7.52472 -30.41239,-10.50325 -11.91414,-2.97853 -23.51474,-2.97853 -13.79531,0 -21.16326,6.42736 -7.36796,6.42736 -7.36796,16.77384 0,6.42737 2.97854,11.28708 2.97853,4.70294 9.40589,9.24913 6.58413,4.38941 30.88269,15.99002 32.13681,15.36296 44.05094,30.88269 11.91413,15.36296 11.91413,37.78034 z"
         style="font-style:normal;font-variant:normal;font-weight:bold;font-stretch:normal;font-size:320px;font-family:'Open Sans';-inkscape-font-specification:'Open Sans Bold';fill:#6d4da7;fill-opacity:1;stroke-width:1.0033"
         id="path961" /><path
         id="path963"
         style="font-style:normal;font-variant:normal;font-weight:bold;font-stretch:normal;font-size:320px;font-family:'Open Sans';-inkscape-font-specification:'Open Sans Bold';fill:#6d4da7;fill-opacity:1;stroke-width:1.00679"
         d="M 0,0 V 640 H 640 V 240.00586 L 615,215 l -25,25 -4e-5,89.99998 h -90 L 500,240.01172 H 450 V 470 h 50 l -4e-5,-100.00002 h 90 L 590,590 H 50 V 50 H 283.89258 L 175,385.14062 123.38867,226.29492 107.33789,257.79688 75.835938,241.74609 125.2793,393.91602 150,470 h 50 L 352.71289,0 Z"
         transform="matrix(0.99652929,0,0,0.99652929,2.2212248,0.83566607)"
         sodipodi:nodetypes="ccccccccccccccccccccccccccc" /><g
         id="g1482"
         transform="translate(0,-27.982459)"><g
           aria-label="Viash"
           id="text848"
           style="font-weight:300;font-size:478.334px;font-family:'Helvetica LT Std';-inkscape-font-specification:'Helvetica LT Std Light';letter-spacing:0px;fill:#6d4da7;fill-opacity:1;stroke-width:0.996529"><path
             d="m 927.6381,447.36041 h 35.87505 L 1083.0967,102.95992 h -33.9618 L 945.81479,409.09369 842.01631,102.95992 h -33.96172 z"
             id="path2093" /><path
             d="M 1159.1509,447.36041 V 199.58339 h -28.7001 v 247.77702 z m 1.435,-301.82876 v -42.57173 h -31.5701 v 42.57173 z"
             id="path2095" /><path
             d="m 1394.4904,355.99862 c 0,50.22507 -44.9634,72.22843 -90.4052,72.22843 -27.265,0 -53.5734,-14.35002 -53.5734,-44.48506 0,-33.48338 26.3084,-49.2684 69.8368,-52.61674 24.8734,-1.91334 49.7467,-3.82668 74.1418,-13.87169 z m -88.0135,-47.83341 c -57.8784,7.65335 -86.5785,33.00505 -86.5785,74.62011 0,47.8334 39.2234,71.27177 82.7518,71.27177 35.8751,0 68.4018,-14.35002 92.3185,-41.13673 0.4783,17.22003 3.8267,33.96172 22.96,36.83172 4.305,0.95667 8.1317,1.435 12.915,1.435 8.1317,0 18.1767,-3.34833 22.4817,-4.78334 v -22.48169 c -24.395,8.61001 -30.135,3.34833 -30.135,-19.13336 v -134.8902 c 0,-57.40008 -39.7017,-77.01177 -89.9268,-77.01177 -54.0517,0 -97.5801,23.43836 -101.8851,81.79511 h 29.1783 c 5.2617,-43.05006 32.5267,-55.96508 72.2285,-55.96508 44.485,0 61.7051,21.0467 61.7051,50.22508 0,8.61001 -0.9567,21.52503 -10.5234,25.83003 -9.5667,4.30501 -27.265,7.17501 -37.7884,8.13168 z"
             id="path2097" /><path
             d="m 1485.852,369.8703 c 2.3917,46.87674 35.875,84.18679 94.2318,84.18679 58.3567,0 100.9285,-24.87337 100.9285,-72.22844 0,-95.18847 -158.8069,-53.09507 -158.8069,-120.54017 0,-25.3517 19.6117,-42.57173 55.9651,-42.57173 35.875,0 61.7051,13.87169 66.9667,52.13841 h 29.1784 c -7.175,-55.96508 -42.0934,-77.96844 -95.6668,-77.96844 -55.0084,0 -87.0568,29.65671 -87.0568,70.79343 0,97.58014 158.8069,46.87673 158.8069,118.62684 0,23.9167 -19.6117,45.92006 -61.2268,45.92006 -43.05,0 -65.0534,-15.78502 -74.1417,-58.35675 z"
             id="path2099" /><path
             d="M 1766.1549,447.36041 V 313.90522 c 0,-17.22002 0.4783,-31.09171 6.2183,-46.87673 9.0883,-25.3517 33.4834,-48.31174 68.8801,-48.31174 45.9201,0 64.0968,22.4817 64.0968,66.96677 v 161.67689 h 28.7 V 285.20518 c 0,-20.56836 -0.4783,-39.22339 -12.4367,-56.92175 -17.6983,-25.83003 -45.4417,-35.39671 -75.5768,-35.39671 -34.44,0 -56.9217,16.74169 -79.8817,41.13672 V 102.95992 h -28.7001 v 344.40049 z"
             id="path2101" /></g><g
           aria-label="from scripts to pipelines"
           id="text1472"
           style="font-weight:300;font-size:106.296px;font-family:'Helvetica LT Std';-inkscape-font-specification:'Helvetica LT Std Light';letter-spacing:0px;fill:#707070;fill-opacity:1;stroke-width:0.996529;paint-order:stroke fill markers"><path
             d="m 809.75529,527.16265 v 49.74653 h 6.37776 v -49.74653 h 10.6296 v -5.3148 h -10.6296 v -6.80294 c 0,-4.99591 0.21259,-10.41701 6.80295,-10.41701 1.16925,0 2.5511,0.21259 3.82665,0.53148 v -5.84628 c -1.70073,-0.31889 -3.40147,-0.42518 -5.3148,-0.42518 -8.50368,0 -11.69256,5.52739 -11.69256,14.24366 v 8.71627 h -8.18479 v 5.3148 z"
             id="path2104" /><path
             d="m 843.34481,549.91 c 0,-12.33034 3.82666,-22.95994 18.17662,-22.64105 v -6.90924 c -9.24775,0 -14.45626,2.97629 -17.96402,11.79885 h -0.2126 v -10.31071 h -6.37776 v 55.06133 h 6.37776 z"
             id="path2106" /><path
             d="m 892.02803,578.39732 c 15.41292,0 25.51104,-11.58626 25.51104,-29.0188 0,-16.157 -8.29109,-29.01881 -25.51104,-29.01881 -17.00736,0 -25.51104,12.96811 -25.51104,29.01881 0,19.23957 11.47997,28.80621 25.51104,29.0188 z m 18.7081,-29.0188 c 0,11.79885 -5.3148,23.27882 -18.7081,23.27882 -12.22404,0 -18.70809,-9.56664 -18.70809,-23.27882 0,-11.90516 5.3148,-23.27883 18.70809,-23.27883 13.49959,0 18.6018,10.31071 18.7081,23.27883 z"
             id="path2108" /><path
             d="m 934.759,547.2526 c 0,-4.57073 0.85036,-11.26738 3.61406,-14.88144 3.18888,-4.25184 7.75961,-6.27147 12.43663,-6.27147 9.03516,0 11.79886,4.88962 11.79886,12.75552 v 38.05397 h 6.37776 V 547.2526 c 0,-4.57073 0.85037,-11.26738 3.61406,-14.88144 3.18888,-4.25184 7.75961,-6.27147 12.43663,-6.27147 9.03516,0 11.79886,4.88962 11.79886,12.75552 v 38.05397 h 6.37774 v -34.75879 c 0,-11.05479 -2.1259,-21.79068 -17.11364,-21.79068 -7.8659,0 -14.34996,3.50777 -17.96402,10.6296 -2.33851,-5.84628 -5.95258,-10.6296 -16.15699,-10.6296 -7.12183,0 -13.71219,3.50777 -17.00736,9.77923 H 934.759 v -8.29109 h -6.37776 v 55.06133 h 6.37776 z"
             id="path2110" /><path
             d="m 1044.5626,559.68923 c 0.5314,10.41701 7.9722,18.70809 20.9403,18.70809 12.9681,0 22.4284,-5.52739 22.4284,-16.05069 0,-21.15291 -35.2902,-11.79886 -35.2902,-26.78659 0,-5.63369 4.3581,-9.46035 12.4366,-9.46035 7.9722,0 13.7122,3.08259 14.8814,11.58627 h 6.4841 c -1.5945,-12.43664 -9.3541,-17.32625 -21.2592,-17.32625 -12.2241,0 -19.3459,6.59035 -19.3459,15.73181 0,21.68438 35.2903,10.417 35.2903,26.3614 0,5.3148 -4.3582,10.20442 -13.6059,10.20442 -9.5666,0 -14.4563,-3.50777 -16.4759,-12.96811 z"
             id="path2112" /><path
             d="m 1145.9687,539.1741 c -1.9133,-12.75552 -10.2044,-18.81439 -22.8536,-18.81439 -16.4759,0 -25.2984,13.81848 -25.2984,29.1251 0,16.26329 7.7596,28.91251 25.2984,28.91251 13.8185,0 21.4718,-8.29108 23.704,-20.51512 h -6.8029 c -1.4882,9.14145 -7.4408,14.77514 -16.9011,14.77514 -13.1807,0 -18.4955,-11.58626 -18.4955,-23.17253 0,-11.47997 5.4211,-23.38512 18.4955,-23.38512 8.5037,0 14.1374,4.88962 16.3696,13.07441 z"
             id="path2114" /><path
             d="m 1166.2713,549.91 c 0,-12.33034 3.8266,-22.95994 18.1766,-22.64105 v -6.90924 c -9.2478,0 -14.4563,2.97629 -17.9641,11.79885 h -0.2125 v -10.31071 h -6.3778 v 55.06133 h 6.3778 z"
             id="path2116" /><path
             d="m 1202.3054,576.90918 v -55.06133 h -6.3777 v 55.06133 z m 0.3189,-67.07277 v -9.46035 h -7.0155 v 9.46035 z"
             id="path2118" /><path
             d="m 1225.6903,549.59111 c 0,-13.287 6.5904,-23.49142 18.6018,-23.49142 10.7359,0 18.7081,7.75961 18.8144,21.57809 0.5315,13.81848 -5.6337,24.97956 -18.8144,24.97956 -11.5862,0 -18.6018,-10.6296 -18.6018,-23.06623 z m 0,18.4955 c 4.0393,6.69665 11.9052,10.31071 19.6648,10.31071 16.7948,0 24.5544,-13.71218 24.5544,-29.1251 0,-16.26329 -7.1219,-28.91251 -24.8733,-28.91251 -7.0155,0 -15.4129,3.93295 -19.1333,11.16108 h -0.2126 v -9.67294 h -6.3777 v 76.74571 h 6.3777 z"
             id="path2120" /><path
             d="m 1302.861,571.91327 c -1.7007,0.42518 -3.5077,0.74407 -5.2085,0.74407 -5.3148,0 -5.5274,-2.33851 -5.5274,-7.75961 v -37.73508 h 10.3107 v -5.3148 h -10.3107 v -15.30662 h -6.3777 v 15.30662 h -7.7596 v 5.3148 h 7.7596 v 40.28619 c 0,8.18479 3.5077,10.94848 9.7792,10.94848 3.0826,0 5.8463,-0.95666 7.3344,-1.27555 z"
             id="path2122" /><path
             d="m 1310.3018,559.68923 c 0.5314,10.41701 7.9722,18.70809 20.9403,18.70809 12.9681,0 22.4284,-5.52739 22.4284,-16.05069 0,-21.15291 -35.2902,-11.79886 -35.2902,-26.78659 0,-5.63369 4.3581,-9.46035 12.4366,-9.46035 7.9722,0 13.7122,3.08259 14.8814,11.58627 h 6.4841 c -1.5945,-12.43664 -9.3541,-17.32625 -21.2592,-17.32625 -12.2241,0 -19.3459,6.59035 -19.3459,15.73181 0,21.68438 35.2903,10.417 35.2903,26.3614 0,5.3148 -4.3582,10.20442 -13.6059,10.20442 -9.5666,0 -14.4563,-3.50777 -16.4759,-12.96811 z"
             id="path2124" /><path
             d="m 1415.1094,571.91327 c -1.7008,0.42518 -3.5078,0.74407 -5.2086,0.74407 -5.3148,0 -5.5273,-2.33851 -5.5273,-7.75961 v -37.73508 h 10.3107 v -5.3148 h -10.3107 v -15.30662 h -6.3778 v 15.30662 h -7.7596 v 5.3148 h 7.7596 v 40.28619 c 0,8.18479 3.5078,10.94848 9.7792,10.94848 3.0826,0 5.8463,-0.95666 7.3345,-1.27555 z"
             id="path2126" /><path
             d="m 1447.2107,578.39732 c 15.413,0 25.5111,-11.58626 25.5111,-29.0188 0,-16.157 -8.2911,-29.01881 -25.5111,-29.01881 -17.0073,0 -25.511,12.96811 -25.511,29.01881 0,19.23957 11.48,28.80621 25.511,29.0188 z m 18.7081,-29.0188 c 0,11.79885 -5.3148,23.27882 -18.7081,23.27882 -12.224,0 -18.708,-9.56664 -18.708,-23.27882 0,-11.90516 5.3148,-23.27883 18.708,-23.27883 13.4996,0 18.6018,10.31071 18.7081,23.27883 z"
             id="path2128" /><path
             d="m 1521.0864,549.59111 c 0,-13.287 6.5904,-23.49142 18.6018,-23.49142 10.7359,0 18.7081,7.75961 18.8144,21.57809 0.5315,13.81848 -5.6337,24.97956 -18.8144,24.97956 -11.5862,0 -18.6018,-10.6296 -18.6018,-23.06623 z m 0,18.4955 c 4.0393,6.69665 11.9052,10.31071 19.6648,10.31071 16.7948,0 24.5544,-13.71218 24.5544,-29.1251 0,-16.26329 -7.1219,-28.91251 -24.8733,-28.91251 -7.0155,0 -15.4129,3.93295 -19.1333,11.16108 h -0.2126 v -9.67294 h -6.3777 v 76.74571 h 6.3777 z"
             id="path2130" /><path
             d="m 1586.2457,576.90918 v -55.06133 h -6.3778 v 55.06133 z m 0.3189,-67.07277 v -9.46035 h -7.0156 v 9.46035 z"
             id="path2132" /><path
             d="m 1609.6306,549.59111 c 0,-13.287 6.5904,-23.49142 18.6018,-23.49142 10.7359,0 18.7081,7.75961 18.8144,21.57809 0.5315,13.81848 -5.6337,24.97956 -18.8144,24.97956 -11.5863,0 -18.6018,-10.6296 -18.6018,-23.06623 z m 0,18.4955 c 4.0393,6.69665 11.9052,10.31071 19.6648,10.31071 16.7947,0 24.5543,-13.71218 24.5543,-29.1251 0,-16.26329 -7.1218,-28.91251 -24.8732,-28.91251 -7.0156,0 -15.4129,3.93295 -19.1333,11.16108 h -0.2126 v -9.67294 h -6.3777 v 76.74571 h 6.3777 z"
             id="path2134" /><path
             d="m 1671.3884,545.55186 c 1.2755,-10.41701 7.2281,-19.45217 18.4955,-19.45217 11.48,0 17.4325,8.71627 17.4325,19.45217 z m 42.731,5.3148 c 0.1063,-19.77106 -9.1415,-30.50695 -24.2355,-30.50695 -15.7318,0 -25.2985,13.1807 -25.2985,29.2314 0,16.26329 7.6534,28.80621 25.2985,28.80621 14.0311,0 20.6214,-7.9722 23.8103,-18.3892 h -7.1218 c -1.9134,8.07849 -8.3974,12.64922 -16.6885,12.64922 -12.224,0 -18.6018,-9.88553 -18.4955,-21.79068 z"
             id="path2136" /><path
             d="m 1733.8904,576.90918 v -76.53312 h -6.3778 v 76.53312 z"
             id="path2138" /><path
             d="m 1757.4879,576.90918 v -55.06133 h -6.3777 v 55.06133 z m 0.3189,-67.07277 v -9.46035 h -7.0155 v 9.46035 z"
             id="path2140" /><path
             d="m 1780.1288,547.2526 c 0,-3.82666 0.1063,-6.90924 1.3818,-10.41701 2.0197,-5.63369 7.4408,-10.7359 15.3067,-10.7359 10.2044,0 14.2436,4.99591 14.2436,14.88144 v 35.92805 h 6.3778 v -36.03434 c 0,-4.57073 -0.1063,-8.71628 -2.7637,-12.64923 -3.933,-5.73998 -10.0981,-7.8659 -16.7948,-7.8659 -7.6533,0 -12.6492,3.72036 -17.7514,9.14145 v -7.65331 h -6.3778 v 55.06133 h 6.3778 z"
             id="path2142" /><path
             d="m 1836.7845,545.55186 c 1.2756,-10.41701 7.2281,-19.45217 18.4955,-19.45217 11.48,0 17.4326,8.71627 17.4326,19.45217 z m 42.731,5.3148 c 0.1063,-19.77106 -9.1415,-30.50695 -24.2355,-30.50695 -15.7318,0 -25.2984,13.1807 -25.2984,29.2314 0,16.26329 7.6533,28.80621 25.2984,28.80621 14.0311,0 20.6214,-7.9722 23.8103,-18.3892 h -7.1218 c -1.9133,8.07849 -8.3974,12.64922 -16.6885,12.64922 -12.224,0 -18.6018,-9.88553 -18.4955,-21.79068 z"
             id="path2144" /><path
             d="m 1889.1884,559.68923 c 0.5315,10.41701 7.9722,18.70809 20.9404,18.70809 12.9681,0 22.4284,-5.52739 22.4284,-16.05069 0,-21.15291 -35.2903,-11.79886 -35.2903,-26.78659 0,-5.63369 4.3582,-9.46035 12.4367,-9.46035 7.9722,0 13.7122,3.08259 14.8814,11.58627 h 6.4841 c -1.5945,-12.43664 -9.3541,-17.32625 -21.2592,-17.32625 -12.2241,0 -19.3459,6.59035 -19.3459,15.73181 0,21.68438 35.2903,10.417 35.2903,26.3614 0,5.3148 -4.3582,10.20442 -13.6059,10.20442 -9.5667,0 -14.4563,-3.50777 -16.4759,-12.96811 z"
             id="path2146" /></g><text
           xml:space="preserve"
           style="font-style:normal;font-variant:normal;font-weight:300;font-stretch:normal;font-size:478.334px;line-height:1.25;font-family:'Helvetica LT Std';-inkscape-font-specification:'Helvetica LT Std Light';letter-spacing:0px;word-spacing:0px;display:inline;fill:#6d4da7;fill-opacity:1;stroke-width:0.996529"
           x="759.58344"
           y="1115.035"
           id="text848-0"><tspan
             sodipodi:role="line"
             id="tspan846-3"
             x="759.58344"
             y="1115.035"
             style="font-style:normal;font-variant:normal;font-weight:300;font-stretch:normal;font-size:478.334px;font-family:'Helvetica LT Std';-inkscape-font-specification:'Helvetica LT Std Light';fill:#6d4da7;fill-opacity:1;stroke-width:0.996529">Viash</tspan></text><text
           xml:space="preserve"
           style="font-style:normal;font-variant:normal;font-weight:300;font-stretch:normal;font-size:106.296px;line-height:1.25;font-family:'Helvetica LT Std';-inkscape-font-specification:'Helvetica LT Std Light';letter-spacing:0px;word-spacing:0px;display:inline;fill:#707070;fill-opacity:1;stroke:none;stroke-width:0.996529;stroke-miterlimit:4;stroke-dasharray:none;stroke-opacity:1;paint-order:stroke fill markers"
           x="759.58344"
           y="1244.5839"
           id="text1472-0"><tspan
             sodipodi:role="line"
             x="759.58344"
             y="1244.5839"
             style="font-style:normal;font-variant:normal;font-weight:300;font-stretch:normal;font-size:106.296px;font-family:'Helvetica LT Std';-inkscape-font-specification:'Helvetica LT Std Light';fill:#707070;fill-opacity:1;stroke:none;stroke-width:0.996529;stroke-miterlimit:4;stroke-dasharray:none;stroke-opacity:1;paint-order:stroke fill markers"
             id="tspan1474-4">from scripts to pipelines</tspan></text></g></g></g></svg>
